ply
format ascii 1.0
comment VCGLIB generated
element vertex 468
property float x
property float y
property float z
property float texture_u
property float texture_v
element face 898
property list uchar int vertex_indices
end_header
0 -3.4064 5.97951 0.499977 0.347466
0 -1.12687 7.4756 0.500026 0.452513
0 -2.08902 6.05827 0.499974 0.397628
-0.463928 0.955357 6.63358 0.482113 0.528021
0 -0.46317 7.58658 0.500151 0.472844
0 0.365669 7.24287 0.49991 0.501747
0 2.47325 5.78863 0.499523 0.598938
-4.25308 2.57765 3.2797 0.289712 0.619236
0 4.01904 5.28476 0.499955 0.687602
0 4.88598 5.38526 0.499987 0.730081
0 8.26178 4.48153 0.500023 0.89295
0 -3.70681 5.86492 0.500023 0.333766
0 -3.9183 5.56943 0.500016 0.320776
0 -3.99444 5.21948 0.500023 0.307652
0 -4.5424 5.40475 0.499977 0.304722
0 -4.74558 5.52946 0.499977 0.294066
0 -5.01957 5.60145 0.499977 0.280615
0 -5.36512 5.53544 0.499977 0.262981
0 -6.14962 5.07137 0.499968 0.218629
0 -1.5011 7.1122 0.499816 0.437019
-0.416106 -1.46645 6.44766 0.473773 0.42609
-7.08796 5.4348 0.09962 0.104907 0.745859
-2.62864 2.0359 3.84812 0.36593 0.590424
-3.19836 1.98582 3.79695 0.338758 0.586975
-3.77515 2.0394 3.64619 0.31112 0.59054
-4.46582 2.42295 3.15517 0.274658 0.610869
-2.16429 2.18987 3.85182 0.393362 0.596294
-3.20823 3.22393 4.11582 0.345234 0.655989
-2.6738 3.20534 4.0922 0.370094 0.653924
-3.74519 3.16529 3.97241 0.319322 0.652735
-4.16102 3.05907 3.71955 0.297903 0.646409
-5.06201 1.93442 2.77609 0.247792 0.58919
-2.26666 -7.42577 4.38981 0.396889 0.157245
-4.44586 2.66399 3.17342 0.280098 0.6244
-7.21453 2.26301 0.07315 0.10631 0.600044
-5.79979 2.34955 2.20406 0.209925 0.608647
-2.84494 -0.720868 4.43313 0.355808 0.465594
-0.711452 -3.32936 5.87704 0.471751 0.349596
-0.606033 -3.92456 5.44492 0.474155 0.319808
-1.43161 -3.50095 5.49619 0.439785 0.342771
-1.91491 -3.80315 5.02893 0.414617 0.333459
-1.13104 -3.97394 5.18965 0.450374 0.319139
-1.56355 -4.08276 4.84226 0.428771 0.317309
-2.65011 -5.00365 4.18848 0.374971 0.272195
-0.427049 -1.09413 7.36053 0.486717 0.452371
-0.496396 -0.475659 7.44036 0.485301 0.472605
-5.25331 3.88158 3.36316 0.257765 0.68551
-1.7187 0.974609 4.55836 0.401223 0.544828
-1.60863 -0.942516 5.81419 0.429819 0.451385
-1.65127 -0.610868 5.58132 0.421352 0.466259
-4.7655 -0.701554 3.53463 0.276896 0.467943
-0.478306 0.295766 7.10101 0.48337 0.500413
-3.73496 4.50823 4.55045 0.337212 0.717117
-4.5886 4.30204 4.04848 0.296392 0.706757
-6.27933 6.61543 1.42585 0.169295 0.806186
-1.22094 4.14217 5.10604 0.44758 0.69739
-2.19349 3.10032 4.00058 0.39239 0.646112
-3.10264 -4.35298 4.0959 0.35449 0.303216
-6.71968 -4.78864 -1.7454 0.067305 0.269895
-1.19382 -1.3068 5.73775 0.442739 0.427174
-0.729766 -1.59371 5.83321 0.457098 0.415208
-2.45621 -4.34262 4.28388 0.381974 0.305289
-2.20482 -4.30451 4.1625 0.392389 0.305797
-4.98589 4.80246 3.75198 0.277076 0.728068
-1.59229 -1.25771 5.45695 0.422552 0.436767
-2.64455 4.52465 4.92156 0.385919 0.718636
-2.76029 5.10097 5.01599 0.383103 0.74416
-3.52396 8.00598 3.72916 0.331431 0.880286
-5.59976 5.71547 2.72426 0.229924 0.767997
-3.06393 6.56614 4.52998 0.364501 0.810886
-5.72097 4.25458 2.83085 0.229622 0.700459
-6.37439 4.78559 1.59169 0.173287 0.721252
-0.672728 -3.68802 5.7378 0.472879 0.333802
-1.26256 -3.78769 5.41778 0.446828 0.331473
-1.73255 -3.95277 5.00058 0.422762 0.32611
-1.04362 -1.46497 5.66246 0.445308 0.419934
-2.32123 -4.32907 4.25816 0.388103 0.306039
-2.05685 -4.47767 4.52088 0.403039 0.29346
-2.15308 -4.27632 4.03809 0.403629 0.306047
-0.946874 -1.03525 6.51227 0.460042 0.442861
-1.46913 -4.03635 4.60491 0.431158 0.307634
-1.02434 -3.98985 4.92669 0.452182 0.307634
-0.533422 -3.99322 5.1382 0.475387 0.307634
-0.76972 -6.09539 4.98588 0.465828 0.22081
-0.699606 -5.29185 5.4483 0.472329 0.263774
-0.669687 -4.94977 5.50961 0.473087 0.282143
-0.630947 -4.6951 5.44937 0.473122 0.295374
-0.583218 -4.51798 5.33987 0.473033 0.304722
-1.53717 -4.42321 4.74547 0.427942 0.304722
-1.6156 -4.47594 4.81363 0.426479 0.29646
-1.72905 -4.61868 4.85446 0.423162 0.288154
-1.83862 -4.82875 4.82374 0.418309 0.279937
-2.36825 -3.10624 4.8681 0.390095 0.360427
-7.54224 -1.04928 -2.43132 0.013954 0.439966
0 -1.724 6.60139 0.499914 0.419853
-1.82661 -4.39953 4.39902 0.4132 0.3046
-1.92956 -4.41183 4.49705 0.409626 0.298177
-0.597442 -2.01369 5.86646 0.46808 0.398465
-1.40563 -1.7142 5.24109 0.422729 0.414015
-0.662449 -1.81932 5.86376 0.46308 0.406216
-2.34234 0.572222 4.2943 0.37212 0.526586
-3.32732 0.104863 4.11386 0.334562 0.503927
-1.72617 -0.919165 5.27336 0.411671 0.453035
-5.1332 7.4856 2.66044 0.242176 0.852324
-4.53864 6.31991 3.68342 0.290777 0.798554
-3.98656 5.10949 4.46631 0.327338 0.743473
-2.16968 -5.44043 4.45587 0.39951 0.251079
-1.39563 5.01196 5.31603 0.441728 0.738324
-1.6195 6.59922 4.92111 0.429765 0.812166
-1.8914 8.23638 4.275 0.412198 0.891099
-4.19583 2.2352 3.3751 0.288955 0.601048
-5.73334 1.41174 2.43173 0.218937 0.564589
-1.85989 2.35576 3.84318 0.412782 0.60103
-4.98861 3.07465 3.08386 0.257135 0.64456
-1.30326 1.41645 4.83109 0.427685 0.562039
-1.30576 -0.672779 6.41596 0.44834 0.463064
-6.46517 0.937119 1.68987 0.17856 0.542446
-5.25866 0.945811 2.97431 0.247308 0.542806
-4.43234 0.722096 3.52261 0.286267 0.532325
-3.30068 0.861641 3.87278 0.332828 0.539288
-2.43018 1.13149 4.03903 0.368756 0.552793
-1.82073 1.46795 4.22412 0.398964 0.567345
-0.563221 2.30769 5.56679 0.47641 0.594194
-6.33814 -0.529279 1.88118 0.189241 0.476076
-5.5877 3.20807 2.68784 0.228962 0.651049
-0.242624 -1.46286 7.07149 0.490726 0.437599
-1.61125 0.339326 4.89542 0.40467 0.514867
-7.74309 2.365 -2.00517 0.019469 0.598436
-1.39114 1.85105 4.449 0.426243 0.579569
-1.78579 -0.978284 4.85047 0.396993 0.451203
-4.67096 2.66446 3.08407 0.26647 0.623023
-1.33397 -0.283761 6.09705 0.439121 0.481042
-7.2709 -2.89092 -2.25245 0.032314 0.355643
-1.85643 2.58524 3.7579 0.419054 0.612845
-0.923388 0.073076 6.67194 0.462783 0.494253
-5.00059 -6.13513 1.89252 0.238979 0.220255
-5.08528 -7.17859 0.714711 0.198221 0.168062
-7.15929 -0.81182 -0.072044 0.10755 0.459245
-5.84305 -5.24802 0.924091 0.18361 0.259743
-6.84726 3.66292 0.724695 0.13441 0.666317
-2.41294 -8.25885 4.11921 0.385764 0.116846
-0.179909 -1.68986 6.5733 0.490967 0.420622
-2.10366 -0.163946 4.56612 0.382385 0.491427
-6.40757 2.23602 1.56084 0.174399 0.602329
-3.67007 2.36015 3.63523 0.318785 0.603765
-3.17719 2.29427 3.7757 0.343364 0.599403
-2.19612 -4.59832 4.47979 0.3961 0.289783
-6.23488 -1.94443 1.66354 0.187885 0.411462
-1.29292 -9.29592 4.09406 0.430987 0.055935
-3.21065 -8.53328 2.802 0.318993 0.101715
-4.06893 -7.99311 1.92512 0.266248 0.130299
0 6.54539 5.02731 0.500023 0.809424
0 -9.40338 4.26449 0.499977 0.045547
-2.72403 2.3158 3.77715 0.36617 0.601178
-2.28846 2.39889 3.6976 0.393207 0.604463
-1.99831 2.49655 3.68915 0.410373 0.60892
-6.13004 3.39926 2.03852 0.194993 0.657898
-2.28846 2.8865 3.77503 0.388665 0.637716
-2.72403 2.96181 3.87177 0.365962 0.644029
-3.17719 2.96414 3.87697 0.343364 0.644643
-3.67007 2.92771 3.72432 0.318785 0.64166
-4.01839 2.85736 3.48298 0.301415 0.636844
-7.55581 4.10681 -0.991917 0.058133 0.680924
-4.01839 2.4837 3.4409 0.301415 0.612551
0 -2.52194 5.93226 0.499988 0.381566
-1.77622 -2.68395 5.21312 0.415838 0.375804
-1.22224 -1.18244 5.95247 0.445682 0.433923
-0.731493 -2.53668 5.81534 0.465844 0.379359
0 3.27103 5.23601 0.499923 0.648476
-4.13527 -6.99664 2.67197 0.288719 0.180054
-3.31181 -7.66081 3.38296 0.335279 0.14718
-1.3137 -8.63999 4.70246 0.440512 0.097581
-5.94052 -6.22363 -0.631468 0.128294 0.208059
-1.99831 2.74384 3.74403 0.408772 0.626106
-0.901447 1.23699 5.75426 0.455607 0.548199
0 -8.76524 4.89144 0.499877 0.09101
-2.30898 -8.9742 3.60907 0.375437 0.075808
-6.95415 -2.43984 -0.131163 0.11421 0.384978
-1.09882 -4.45879 5.12073 0.448662 0.304722
-1.18112 -4.58 5.18956 0.44802 0.295368
-1.25582 -4.7879 5.23705 0.447112 0.284192
-1.32509 -5.10651 5.20501 0.444832 0.269206
-1.54639 -5.81939 4.75789 0.430012 0.233191
-1.95375 -4.18389 4.43171 0.406787 0.314327
-2.1178 -4.13709 4.5551 0.400738 0.318931
-2.28534 -4.0512 4.58244 0.3924 0.322297
-2.85016 -3.66572 4.48499 0.367856 0.336081
-5.27854 -2.23894 2.86122 0.247923 0.398667
-0.946709 1.90763 5.19678 0.45277 0.57915
-1.31417 3.10491 4.2314 0.436392 0.640113
-1.78 2.86 3.88156 0.416164 0.631286
-1.84511 -4.09888 4.24726 0.413386 0.307634
-5.43619 -4.03048 2.10985 0.228018 0.316428
-0.766444 3.18213 4.86145 0.468268 0.647329
-1.93862 -6.61441 4.52108 0.411362 0.195673
0 1.05941 6.7746 0.499989 0.530175
-0.516573 1.58357 6.14836 0.479154 0.557346
0 1.72837 6.31675 0.499974 0.560363
-1.24681 0.230297 5.68104 0.432112 0.506411
0 -7.94219 5.18117 0.499886 0.133083
0 -6.9915 5.15348 0.499913 0.178271
-0.997827 -6.93092 4.97958 0.456549 0.180799
-3.28881 -5.38251 3.79575 0.344549 0.254561
-2.31163 -1.56624 4.59009 0.378909 0.42599
-2.68025 -6.11157 4.09615 0.374293 0.219815
-3.83293 -1.53733 4.13773 0.319688 0.429262
-2.96186 -2.27421 4.44094 0.357155 0.39573
-4.3869 -2.68329 3.64389 0.295284 0.378419
-1.2173 -7.83447 4.96929 0.44775 0.137523
-1.54237 -0.136843 5.20101 0.410986 0.491277
-3.87838 -6.04176 3.31108 0.313951 0.224692
-3.08404 -6.80984 3.81419 0.354128 0.187447
-3.74732 -4.50354 3.72645 0.324548 0.296007
-6.09413 -3.20599 1.47348 0.189096 0.3537
-4.58899 -4.72873 2.98322 0.279777 0.285342
-6.58323 -3.94127 0.070268 0.133823 0.317299
-3.49258 -3.19582 4.1302 0.336768 0.355267
-1.25554 0.802341 5.30755 0.429884 0.533478
-1.12612 -0.933602 6.53878 0.455528 0.451377
-1.44311 -1.14277 5.90513 0.437114 0.441104
-0.923043 -0.529042 7.00342 0.467288 0.470075
-1.75539 3.52912 4.3277 0.414712 0.66478
-2.63259 3.71383 4.36463 0.377046 0.677222
-3.38806 3.72198 4.30903 0.344108 0.679849
-4.07577 3.67541 4.07606 0.312876 0.677668
-4.62291 3.47469 3.64632 0.283526 0.66681
-5.17175 2.53575 2.67087 0.241246 0.617214
-7.29733 0.763172 -0.048769 0.102986 0.531237
-4.70683 1.651 3.10953 0.267612 0.57544
-4.07171 1.47682 3.47694 0.297879 0.566824
-3.26982 1.47066 3.73195 0.333434 0.566122
-2.52757 1.61731 3.86544 0.366427 0.573884
-1.97089 1.85851 3.96178 0.396012 0.583304
-1.57954 2.09794 4.085 0.420121 0.589772
-7.66418 0.673132 -2.43587 0.007561 0.519223
-1.39704 -1.34014 5.63038 0.432949 0.430482
-0.884838 0.65874 6.23323 0.458639 0.520911
-0.767097 -0.968035 7.07793 0.473466 0.454256
-0.460213 -1.33411 6.78745 0.476088 0.43617
-0.748618 -1.06799 6.7983 0.468472 0.444943
-1.23641 -1.58557 5.48049 0.433991 0.417638
-0.387306 -1.40999 6.95771 0.483518 0.437016
-0.319925 -1.60793 6.50868 0.482483 0.422151
-1.63963 2.5563 3.86374 0.42645 0.610201
-1.25565 2.46714 4.2038 0.438999 0.603505
-1.03136 2.38266 4.61585 0.450067 0.599566
-4.25308 2.7723 3.3153 0.289712 0.631747
-4.53 2.91 3.33968 0.27667 0.636627
0.463928 0.955357 6.63358 0.517862 0.528052
4.25308 2.57765 3.2797 0.710288 0.619236
0.416106 -1.46645 6.44766 0.526227 0.42609
7.08796 5.4348 0.09962 0.895093 0.745859
2.62864 2.0359 3.84812 0.63407 0.590424
3.19836 1.98582 3.79695 0.661242 0.586975
3.77515 2.0394 3.64619 0.68888 0.59054
4.46582 2.42295 3.15517 0.725342 0.610869
2.16429 2.18987 3.85182 0.60663 0.596295
3.20823 3.22393 4.11582 0.654766 0.655989
2.6738 3.20534 4.0922 0.629906 0.653924
3.74519 3.16529 3.97241 0.680678 0.652735
4.16102 3.05907 3.71955 0.702097 0.646409
5.06201 1.93442 2.77609 0.752212 0.589195
2.26666 -7.42577 4.38981 0.602918 0.157137
4.44586 2.66399 3.17342 0.719902 0.6244
7.21453 2.26301 0.07315 0.893693 0.60004
5.79979 2.34955 2.20406 0.790082 0.608646
2.84494 -0.720868 4.43313 0.643998 0.465512
0.711452 -3.32936 5.87704 0.528249 0.349596
0.606033 -3.92456 5.44492 0.52585 0.319809
1.43161 -3.50095 5.49619 0.560215 0.342771
1.91491 -3.80315 5.02893 0.585384 0.333459
1.13104 -3.97394 5.18965 0.549626 0.319139
1.56355 -4.08276 4.84226 0.571228 0.317308
2.65011 -5.00365 4.18848 0.624852 0.271901
0.427049 -1.09413 7.36053 0.51305 0.452718
0.496396 -0.475659 7.44036 0.515097 0.472748
5.25331 3.88158 3.36316 0.742247 0.685493
1.7187 0.974609 4.55836 0.598631 0.545021
1.60863 -0.942516 5.81419 0.570338 0.451425
1.65127 -0.610868 5.58132 0.578632 0.466377
4.7655 -0.701554 3.53463 0.723087 0.467946
0.478306 0.295766 7.10101 0.516446 0.500361
3.73496 4.50823 4.55045 0.662801 0.717082
4.5886 4.30204 4.04848 0.703624 0.706729
6.27933 6.61543 1.42585 0.830705 0.806186
1.22094 4.14217 5.10604 0.552386 0.697432
2.19349 3.10032 4.00058 0.60761 0.646112
3.10264 -4.35298 4.0959 0.645429 0.303293
6.71968 -4.78864 -1.7454 0.932695 0.269895
1.19382 -1.3068 5.73775 0.557261 0.427174
0.729766 -1.59371 5.83321 0.542902 0.415208
2.45621 -4.34262 4.28388 0.618026 0.305289
2.20482 -4.30451 4.1625 0.607591 0.305797
4.98589 4.80246 3.75198 0.722943 0.728037
1.59229 -1.25771 5.45695 0.577414 0.436833
2.64455 4.52465 4.92156 0.614083 0.718613
2.76029 5.10097 5.01599 0.616907 0.744114
3.52396 8.00598 3.72916 0.668509 0.880086
5.59976 5.71547 2.72426 0.770092 0.767979
3.06393 6.56614 4.52998 0.635536 0.810751
5.72097 4.25458 2.83085 0.770391 0.700444
6.37439 4.78559 1.59169 0.826722 0.721245
0.672728 -3.68802 5.7378 0.527121 0.333802
1.26256 -3.78769 5.41778 0.553172 0.331473
1.73255 -3.95277 5.00058 0.577238 0.32611
1.04362 -1.46497 5.66246 0.554692 0.419934
2.32123 -4.32907 4.25816 0.611897 0.306039
2.05685 -4.47767 4.52088 0.596961 0.29346
2.15308 -4.27632 4.03809 0.596371 0.306047
0.946874 -1.03525 6.51227 0.539958 0.442861
1.46913 -4.03635 4.60491 0.568842 0.307634
1.02434 -3.98985 4.92669 0.547818 0.307634
0.533422 -3.99322 5.1382 0.524613 0.307634
0.76972 -6.09539 4.98588 0.53409 0.220859
0.699606 -5.29185 5.4483 0.527671 0.263774
0.669687 -4.94977 5.50961 0.526913 0.282143
0.630947 -4.6951 5.44937 0.526878 0.295374
0.583218 -4.51798 5.33987 0.526967 0.304722
1.53717 -4.42321 4.74547 0.572058 0.304722
1.6156 -4.47594 4.81363 0.573521 0.29646
1.72905 -4.61868 4.85446 0.576838 0.288154
1.83862 -4.82875 4.82374 0.581691 0.279937
2.36825 -3.10624 4.8681 0.609945 0.36009
7.54224 -1.04928 -2.43132 0.986046 0.439966
1.82661 -4.39953 4.39902 0.5868 0.3046
1.92956 -4.41183 4.49705 0.590372 0.298177
0.597442 -2.01369 5.86646 0.531915 0.398463
1.40563 -1.7142 5.24109 0.577268 0.414065
0.662449 -1.81932 5.86376 0.536915 0.406214
2.34234 0.572222 4.2943 0.627543 0.526648
3.32732 0.104863 4.11386 0.665586 0.504049
1.72617 -0.919165 5.27336 0.588354 0.453138
5.1332 7.4856 2.66044 0.757824 0.852324
4.53864 6.31991 3.68342 0.70925 0.798492
3.98656 5.10949 4.46631 0.672684 0.743419
2.16968 -5.44043 4.45587 0.600409 0.250995
1.39563 5.01196 5.31603 0.558266 0.738328
1.6195 6.59922 4.92111 0.570304 0.812129
1.8914 8.23638 4.275 0.588166 0.890956
4.19583 2.2352 3.3751 0.711045 0.601048
5.73334 1.41174 2.43173 0.78107 0.564595
1.85989 2.35576 3.84318 0.587247 0.601068
4.98861 3.07465 3.08386 0.74287 0.644554
1.30326 1.41645 4.83109 0.572156 0.562348
1.30576 -0.672779 6.41596 0.551868 0.46343
6.46517 0.937119 1.68987 0.821442 0.542444
5.25866 0.945811 2.97431 0.752702 0.542818
4.43234 0.722096 3.52261 0.713757 0.532373
3.30068 0.861641 3.87278 0.667113 0.539327
2.43018 1.13149 4.03903 0.631101 0.552846
1.82073 1.46795 4.22412 0.600862 0.567527
0.563221 2.30769 5.56679 0.523481 0.594373
6.33814 -0.529279 1.88118 0.810748 0.476074
5.5877 3.20807 2.68784 0.771046 0.651041
0.242624 -1.46286 7.07149 0.509127 0.437282
1.61125 0.339326 4.89542 0.595293 0.514976
7.74309 2.365 -2.00517 0.980531 0.598436
1.39114 1.85105 4.449 0.5735 0.58
1.78579 -0.978284 4.85047 0.602995 0.451312
4.67096 2.66446 3.08407 0.73353 0.623023
1.33397 -0.283761 6.09705 0.560611 0.480983
7.2709 -2.89092 -2.25245 0.967686 0.355643
1.85643 2.58524 3.7579 0.580985 0.61284
0.923388 0.073076 6.67194 0.537728 0.494615
5.00059 -6.13513 1.89252 0.760966 0.220247
5.08528 -7.17859 0.714711 0.801779 0.168062
7.15929 -0.81182 -0.072044 0.892441 0.459239
5.84305 -5.24802 0.924091 0.816351 0.25974
6.84726 3.66292 0.724695 0.865595 0.666313
2.41294 -8.25885 4.11921 0.614074 0.116754
0.179909 -1.68986 6.5733 0.508953 0.420562
2.10366 -0.163946 4.56612 0.617942 0.491684
6.40757 2.23602 1.56084 0.825608 0.602325
3.67007 2.36015 3.63523 0.681215 0.603765
3.17719 2.29427 3.7757 0.656636 0.599403
2.19612 -4.59832 4.47979 0.6039 0.289783
6.23488 -1.94443 1.66354 0.812086 0.411461
1.29292 -9.29592 4.09406 0.568013 0.055435
3.21065 -8.53328 2.802 0.681008 0.101715
4.06893 -7.99311 1.92512 0.733752 0.130299
2.72403 2.3158 3.77715 0.63383 0.601178
2.28846 2.39889 3.6976 0.606793 0.604463
1.99831 2.49655 3.68915 0.58966 0.608938
6.13004 3.39926 2.03852 0.805016 0.657892
2.28846 2.8865 3.77503 0.611335 0.637716
2.72403 2.96181 3.87177 0.634038 0.644029
3.17719 2.96414 3.87697 0.656636 0.644643
3.67007 2.92771 3.72432 0.681215 0.64166
4.01839 2.85736 3.48298 0.698585 0.636844
7.55581 4.10681 -0.991917 0.941867 0.680924
4.01839 2.4837 3.4409 0.698585 0.612551
1.77622 -2.68395 5.21312 0.584177 0.375893
1.22224 -1.18244 5.95247 0.554318 0.433923
0.731493 -2.53668 5.81534 0.534154 0.37936
4.13527 -6.99664 2.67197 0.711218 0.180025
3.31181 -7.66081 3.38296 0.66463 0.147129
1.3137 -8.63999 4.70246 0.5591 0.097368
5.94052 -6.22363 -0.631468 0.871706 0.208059
1.99831 2.74384 3.74403 0.591234 0.626106
0.901447 1.23699 5.75426 0.544341 0.548416
2.30898 -8.9742 3.60907 0.624563 0.075808
6.95415 -2.43984 -0.131163 0.88577 0.384971
1.09882 -4.45879 5.12073 0.551338 0.304722
1.18112 -4.58 5.18956 0.55198 0.295368
1.25582 -4.7879 5.23705 0.552888 0.284192
1.32509 -5.10651 5.20501 0.555168 0.269206
1.54639 -5.81939 4.75789 0.569944 0.232965
1.95375 -4.18389 4.43171 0.593203 0.314324
2.1178 -4.13709 4.5551 0.599262 0.318931
2.28534 -4.0512 4.58244 0.6076 0.322297
2.85016 -3.66572 4.48499 0.631938 0.3365
5.27854 -2.23894 2.86122 0.752033 0.398685
0.946709 1.90763 5.19678 0.547226 0.579605
1.31417 3.10491 4.2314 0.563544 0.640172
1.78 2.86 3.88156 0.583841 0.631286
1.84511 -4.09888 4.24726 0.586614 0.307634
5.43619 -4.03048 2.10985 0.771915 0.316422
0.766444 3.18213 4.86145 0.531597 0.647517
1.93862 -6.61441 4.52108 0.588371 0.195559
0.516573 1.58357 6.14836 0.520797 0.557435
1.24681 0.230297 5.68104 0.567985 0.506521
0.997827 -6.93092 4.97958 0.543283 0.180745
3.28881 -5.38251 3.79575 0.655317 0.254485
2.31163 -1.56624 4.59009 0.621009 0.425982
2.68025 -6.11157 4.09615 0.62556 0.219688
3.83293 -1.53733 4.13773 0.680198 0.429281
2.96186 -2.27421 4.44094 0.642764 0.395662
4.3869 -2.68329 3.64389 0.704663 0.37847
1.2173 -7.83447 4.96929 0.552012 0.137408
1.54237 -0.136843 5.20101 0.589072 0.491363
3.87838 -6.04176 3.31108 0.685945 0.224643
3.08404 -6.80984 3.81419 0.645735 0.18736
3.74732 -4.50354 3.72645 0.675343 0.296022
6.09413 -3.20599 1.47348 0.810858 0.353695
4.58899 -4.72873 2.98322 0.720122 0.285333
6.58323 -3.94127 0.070268 0.866152 0.317295
3.49258 -3.19582 4.1302 0.663187 0.355403
1.25554 0.802341 5.30755 0.570082 0.533674
1.12612 -0.933602 6.53878 0.544562 0.451624
1.44311 -1.14277 5.90513 0.562759 0.441215
0.923043 -0.529042 7.00342 0.531987 0.46986
1.75539 3.52912 4.3277 0.585271 0.664823
2.63259 3.71383 4.36463 0.622953 0.677221
3.38806 3.72198 4.30903 0.655896 0.679837
4.07577 3.67541 4.07606 0.687132 0.677654
4.62291 3.47469 3.64632 0.716482 0.666799
5.17175 2.53575 2.67087 0.758757 0.617213
7.29733 0.763172 -0.048769 0.897013 0.531231
4.70683 1.651 3.10953 0.732392 0.575453
4.07171 1.47682 3.47694 0.702114 0.566837
3.26982 1.47066 3.73195 0.666525 0.566134
2.52757 1.61731 3.86544 0.633505 0.573912
1.97089 1.85851 3.96178 0.603876 0.583413
1.57954 2.09794 4.085 0.579658 0.590055
7.66418 0.673132 -2.43587 0.99244 0.519223
1.39704 -1.34014 5.63038 0.567192 0.43058
0.884838 0.65874 6.23323 0.541366 0.521101
0.767097 -0.968035 7.07793 0.526564 0.453882
0.460213 -1.33411 6.78745 0.523913 0.43617
0.748618 -1.06799 6.7983 0.531529 0.444943
1.23641 -1.58557 5.48049 0.566036 0.417671
0.387306 -1.40999 6.95771 0.516311 0.436946
0.319925 -1.60793 6.50868 0.517472 0.422123
1.63963 2.5563 3.86374 0.573595 0.610193
1.25565 2.46714 4.2038 0.560698 0.604668
1.03136 2.38266 4.61585 0.549756 0.600249
4.25308 2.7723 3.3153 0.710288 0.631747
4.53 2.91 3.33968 0.72333 0.636627
3 173 155 133 
3 246 33 7 
3 382 398 362 
3 263 466 249 
3 308 415 324 
3 78 95 191 
3 356 389 264 
3 127 34 162 
3 368 264 389 
3 139 162 34 
3 267 0 302 
3 37 72 0 
3 11 302 0 
3 11 0 72 
3 349 451 350 
3 120 121 231 
3 452 350 451 
3 232 231 121 
3 267 302 269 
3 37 39 72 
3 303 269 302 
3 73 72 39 
3 357 343 350 
3 128 121 114 
3 277 350 343 
3 47 114 121 
3 350 452 357 
3 121 128 232 
3 453 357 452 
3 233 232 128 
3 299 333 297 
3 69 67 104 
3 332 297 333 
3 103 104 67 
3 175 152 396 
3 175 171 152 
3 377 396 152 
3 148 152 171 
3 381 384 382 
3 154 155 157 
3 398 382 384 
3 173 157 155 
3 280 347 330 
3 50 101 118 
3 348 330 347 
3 119 118 101 
3 269 303 270 
3 39 40 73 
3 304 270 303 
3 74 73 40 
3 9 336 151 
3 9 151 107 
3 337 151 336 
3 108 107 151 
3 344 278 360 
3 115 131 48 
3 279 360 278 
3 49 48 131 
3 262 431 418 
3 32 194 211 
3 424 418 431 
3 204 211 194 
3 304 408 270 
3 74 40 184 
3 409 270 408 
3 185 184 40 
3 272 310 407 
3 42 183 80 
3 415 407 310 
3 191 80 183 
3 322 270 410 
3 92 186 40 
3 409 410 270 
3 185 40 186 
3 347 449 348 
3 118 119 229 
3 450 348 449 
3 230 229 119 
3 434 432 430 
3 214 210 212 
3 422 430 432 
3 202 212 210 
3 313 314 18 
3 83 18 84 
3 17 18 314 
3 17 84 18 
3 307 375 306 
3 77 76 146 
3 291 306 375 
3 61 146 76 
3 259 387 260 
3 29 30 160 
3 388 260 387 
3 161 160 30 
3 286 414 384 
3 56 157 190 
3 398 384 414 
3 173 190 157 
3 418 424 406 
3 194 182 204 
3 335 406 424 
3 106 204 182 
3 367 416 364 
3 138 135 192 
3 434 364 416 
3 214 192 135 
3 391 423 327 
3 165 98 203 
3 358 327 423 
3 129 203 98 
3 298 301 284 
3 68 54 71 
3 251 284 301 
3 21 71 54 
3 4 275 5 
3 4 5 45 
3 281 5 275 
3 51 45 5 
3 254 373 253 
3 24 23 144 
3 374 253 373 
3 145 144 23 
3 320 321 307 
3 90 77 91 
3 375 307 321 
3 146 91 77 
3 280 425 411 
3 50 187 205 
3 427 411 425 
3 207 205 187 
3 421 313 200 
3 201 200 83 
3 18 200 313 
3 18 83 200 
3 335 321 406 
3 106 182 91 
3 405 406 321 
3 181 91 182 
3 405 321 404 
3 181 180 91 
3 320 404 321 
3 90 91 180 
3 17 314 16 
3 17 16 84 
3 315 16 314 
3 85 84 16 
3 425 266 426 
3 205 206 36 
3 423 426 266 
3 203 36 206 
3 369 396 400 
3 140 176 171 
3 377 400 396 
3 148 171 176 
3 391 269 322 
3 165 92 39 
3 270 322 269 
3 40 39 92 
3 417 465 413 
3 193 189 245 
3 464 413 465 
3 244 245 189 
3 257 258 386 
3 27 159 28 
3 385 386 258 
3 158 28 159 
3 260 388 467 
3 30 247 161 
3 466 467 388 
3 246 161 247 
3 248 456 419 
3 3 196 236 
3 399 419 456 
3 174 236 196 
3 333 298 332 
3 104 103 68 
3 284 332 298 
3 54 68 103 
3 285 8 417 
3 55 193 8 
3 168 417 8 
3 168 8 193 
3 340 261 346 
3 111 117 31 
3 448 346 261 
3 228 31 117 
3 285 417 441 
3 55 221 193 
3 413 441 417 
3 189 193 221 
3 327 460 326 
3 98 97 240 
3 328 326 460 
3 99 240 97 
3 277 355 329 
3 47 100 126 
3 371 329 355 
3 142 126 100 
3 309 392 438 
3 79 218 166 
3 439 438 392 
3 219 166 218 
3 381 382 256 
3 154 26 155 
3 341 256 382 
3 112 155 26 
3 360 279 420 
3 131 198 49 
3 429 420 279 
3 209 49 198 
3 365 364 379 
3 136 150 135 
3 394 379 364 
3 169 135 150 
3 355 277 437 
3 126 217 47 
3 343 437 277 
3 114 47 217 
3 443 444 282 
3 223 52 224 
3 283 282 444 
3 53 224 52 
3 281 275 363 
3 51 134 45 
3 440 363 275 
3 220 45 134 
3 431 262 395 
3 211 170 32 
3 369 395 262 
3 140 32 170 
3 337 299 338 
3 108 109 69 
3 297 338 299 
3 67 69 109 
3 335 273 321 
3 106 91 43 
3 375 321 273 
3 146 43 91 
3 348 450 349 
3 119 120 230 
3 451 349 450 
3 231 230 120 
3 467 359 342 
3 247 113 130 
3 446 342 359 
3 226 130 113 
3 282 283 334 
3 52 105 53 
3 293 334 283 
3 63 53 105 
3 250 458 462 
3 20 242 238 
3 461 462 458 
3 241 238 242 
3 276 353 300 
3 46 70 124 
3 383 300 353 
3 156 124 70 
3 325 292 324 
3 96 95 62 
3 308 324 292 
3 78 62 95 
3 283 276 293 
3 53 63 46 
3 300 293 276 
3 70 46 63 
3 447 264 345 
3 227 116 34 
3 372 345 264 
3 143 34 116 
3 352 345 346 
3 123 117 116 
3 340 346 345 
3 111 116 117 
3 1 19 274 
3 1 44 19 
3 354 274 19 
3 125 19 44 
3 248 281 456 
3 3 236 51 
3 363 456 281 
3 134 51 236 
3 425 426 427 
3 205 207 206 
3 436 427 426 
3 216 206 207 
3 380 381 252 
3 153 22 154 
3 256 252 381 
3 26 154 22 
3 391 393 269 
3 165 39 167 
3 267 269 393 
3 37 167 39 
3 199 428 200 
3 199 200 208 
3 421 200 428 
3 201 208 200 
3 330 329 266 
3 101 36 100 
3 371 266 329 
3 142 100 36 
3 422 432 273 
3 202 43 212 
3 287 273 432 
3 57 212 43 
3 290 250 328 
3 60 99 20 
3 462 328 250 
3 242 20 99 
3 258 286 385 
3 28 158 56 
3 384 385 286 
3 157 56 158 
3 342 446 353 
3 113 124 226 
3 265 353 446 
3 35 226 124 
3 257 386 259 
3 27 29 159 
3 387 259 386 
3 160 159 29 
3 430 422 431 
3 210 211 202 
3 424 431 422 
3 204 202 211 
3 445 342 276 
3 225 46 113 
3 353 276 342 
3 124 113 46 
3 424 422 335 
3 204 106 202 
3 273 335 422 
3 43 202 106 
3 306 292 307 
3 76 77 62 
3 325 307 292 
3 96 62 77 
3 366 447 352 
3 137 123 227 
3 345 352 447 
3 116 227 123 
3 302 268 303 
3 72 73 38 
3 271 303 268 
3 41 38 73 
3 371 358 266 
3 142 36 129 
3 423 266 358 
3 203 129 36 
3 327 294 460 
3 98 240 64 
3 455 460 294 
3 235 64 240 
3 294 331 278 
3 64 48 102 
3 279 278 331 
3 49 102 48 
3 303 271 304 
3 73 74 41 
3 272 304 271 
3 42 41 74 
3 427 436 434 
3 207 214 216 
3 432 434 436 
3 212 216 214 
3 304 272 408 
3 74 184 42 
3 407 408 272 
3 183 42 184 
3 394 430 395 
3 169 170 210 
3 431 395 430 
3 211 210 170 
3 395 369 378 
3 170 149 140 
3 400 378 369 
3 176 140 149 
3 296 334 299 
3 66 69 105 
3 333 299 334 
3 104 105 69 
3 417 168 351 
3 193 122 168 
3 6 351 168 
3 6 168 122 
3 280 411 352 
3 50 123 187 
3 376 352 411 
3 147 187 123 
3 319 320 325 
3 89 96 90 
3 307 325 320 
3 77 90 96 
3 285 295 336 
3 55 107 65 
3 296 336 295 
3 66 65 107 
3 404 320 403 
3 180 179 90 
3 319 403 320 
3 89 90 179 
3 330 348 329 
3 101 100 119 
3 349 329 348 
3 120 119 100 
3 334 293 333 
3 105 104 63 
3 298 333 293 
3 68 63 104 
3 323 454 366 
3 93 137 234 
3 447 366 454 
3 227 234 137 
3 16 315 15 
3 16 15 85 
3 316 15 315 
3 86 85 15 
3 429 279 358 
3 209 129 49 
3 331 358 279 
3 102 49 129 
3 15 316 14 
3 15 14 86 
3 317 14 316 
3 87 86 14 
3 8 285 9 
3 8 9 55 
3 336 9 285 
3 107 55 9 
3 329 349 277 
3 100 47 120 
3 350 277 349 
3 121 120 47 
3 252 253 380 
3 22 153 23 
3 374 380 253 
3 145 23 153 
3 402 403 318 
3 178 88 179 
3 319 318 403 
3 89 179 88 
3 351 6 419 
3 122 196 6 
3 197 419 6 
3 197 6 196 
3 324 318 325 
3 95 96 88 
3 319 325 318 
3 89 88 96 
3 397 367 365 
3 172 136 138 
3 364 365 367 
3 135 138 136 
3 288 435 397 
3 58 172 215 
3 367 397 435 
3 138 215 172 
3 438 439 344 
3 218 115 219 
3 278 344 439 
3 48 219 115 
3 271 311 272 
3 41 42 81 
3 310 272 311 
3 80 81 42 
3 5 281 195 
3 5 195 51 
3 248 195 281 
3 3 51 195 
3 273 287 375 
3 43 146 57 
3 291 375 287 
3 61 57 146 
3 396 428 175 
3 171 175 208 
3 199 175 428 
3 199 208 175 
3 268 312 271 
3 38 41 82 
3 311 271 312 
3 81 82 41 
3 444 445 283 
3 224 53 225 
3 276 283 445 
3 46 225 53 
3 254 339 373 
3 24 144 110 
3 390 373 339 
3 163 110 144 
3 295 282 296 
3 65 66 52 
3 334 296 282 
3 105 52 66 
3 346 448 347 
3 117 118 228 
3 449 347 448 
3 229 228 118 
3 454 356 447 
3 234 227 127 
3 264 447 356 
3 34 127 227 
3 336 296 337 
3 107 108 66 
3 299 337 296 
3 69 66 108 
3 151 337 10 
3 151 10 108 
3 338 10 337 
3 109 108 10 
3 278 439 294 
3 48 64 219 
3 455 294 439 
3 235 219 64 
3 407 415 292 
3 183 62 191 
3 308 292 415 
3 78 191 62 
3 358 371 429 
3 129 209 142 
3 355 429 371 
3 126 142 209 
3 345 372 340 
3 116 111 143 
3 265 340 372 
3 35 143 111 
3 388 390 466 
3 161 246 163 
3 249 466 390 
3 7 163 246 
3 352 346 280 
3 123 50 117 
3 347 280 346 
3 118 117 50 
3 295 442 282 
3 65 52 222 
3 443 282 442 
3 223 222 52 
3 19 94 354 
3 19 125 94 
3 370 354 94 
3 141 94 125 
3 295 285 442 
3 65 222 55 
3 441 442 285 
3 221 55 222 
3 419 197 248 
3 196 3 197 
3 195 248 197 
3 195 197 3 
3 359 263 255 
3 130 25 33 
3 249 255 263 
3 7 33 25 
3 275 274 440 
3 45 220 44 
3 457 440 274 
3 237 44 220 
3 300 383 301 
3 70 71 156 
3 368 301 383 
3 139 156 71 
3 417 351 465 
3 193 245 122 
3 412 465 351 
3 188 122 245 
3 466 263 467 
3 246 247 33 
3 359 467 263 
3 130 33 247 
3 389 251 368 
3 162 139 21 
3 301 368 251 
3 71 21 139 
3 374 386 380 
3 145 153 159 
3 385 380 386 
3 158 159 153 
3 379 394 378 
3 150 149 169 
3 395 378 394 
3 170 169 149 
3 351 419 412 
3 122 188 196 
3 399 412 419 
3 174 196 188 
3 426 322 436 
3 206 216 92 
3 410 436 322 
3 186 92 216 
3 387 373 388 
3 160 161 144 
3 390 388 373 
3 163 144 161 
3 393 326 164 
3 167 164 97 
3 2 164 326 
3 2 97 164 
3 354 370 461 
3 125 241 141 
3 462 461 370 
3 242 141 241 
3 0 267 164 
3 0 164 37 
3 393 164 267 
3 167 37 164 
3 11 12 302 
3 11 72 12 
3 268 302 12 
3 38 12 72 
3 386 374 387 
3 159 160 145 
3 373 387 374 
3 144 145 160 
3 12 13 268 
3 12 38 13 
3 312 268 13 
3 82 13 38 
3 293 300 298 
3 63 68 70 
3 301 298 300 
3 71 70 68 
3 340 265 261 
3 111 31 35 
3 446 261 265 
3 226 35 31 
3 380 385 381 
3 153 154 158 
3 384 381 385 
3 157 158 154 
3 280 330 425 
3 50 205 101 
3 266 425 330 
3 36 101 205 
3 423 391 426 
3 203 206 165 
3 322 426 391 
3 92 165 206 
3 429 355 420 
3 209 198 126 
3 437 420 355 
3 217 126 198 
3 391 327 393 
3 165 167 98 
3 326 393 327 
3 97 98 167 
3 457 438 440 
3 237 220 218 
3 344 440 438 
3 115 218 220 
3 382 362 341 
3 155 112 133 
3 463 341 362 
3 243 133 112 
3 457 461 459 
3 237 239 241 
3 458 459 461 
3 238 241 239 
3 434 430 364 
3 214 135 210 
3 394 364 430 
3 169 210 135 
3 414 463 398 
3 190 173 243 
3 362 398 463 
3 133 243 173 
3 262 428 369 
3 32 140 208 
3 396 369 428 
3 171 208 140 
3 457 274 461 
3 237 241 44 
3 354 461 274 
3 125 44 241 
3 316 403 317 
3 86 87 179 
3 402 317 403 
3 178 179 87 
3 315 404 316 
3 85 86 180 
3 403 316 404 
3 179 180 86 
3 314 405 315 
3 84 85 181 
3 404 315 405 
3 180 181 85 
3 313 406 314 
3 83 84 182 
3 405 314 406 
3 181 182 84 
3 418 406 421 
3 194 201 182 
3 313 421 406 
3 83 182 201 
3 366 401 323 
3 137 93 177 
3 361 323 401 
3 132 177 93 
3 408 407 306 
3 184 76 183 
3 292 306 407 
3 62 183 76 
3 408 306 409 
3 184 185 76 
3 291 409 306 
3 61 76 185 
3 410 409 287 
3 186 57 185 
3 291 287 409 
3 61 185 57 
3 436 410 432 
3 216 212 186 
3 287 432 410 
3 57 186 212 
3 434 416 427 
3 214 207 192 
3 411 427 416 
3 187 192 207 
3 264 368 372 
3 34 143 139 
3 383 372 368 
3 156 139 143 
3 457 459 438 
3 237 218 239 
3 309 438 459 
3 79 239 218 
3 352 376 366 
3 123 137 147 
3 401 366 376 
3 177 147 137 
3 4 1 275 
3 4 45 1 
3 274 275 1 
3 44 1 45 
3 428 262 421 
3 208 201 32 
3 418 421 262 
3 194 32 201 
3 327 358 294 
3 98 64 129 
3 331 294 358 
3 102 129 64 
3 367 435 416 
3 138 192 215 
3 433 416 435 
3 213 215 192 
3 455 439 289 
3 235 59 219 
3 392 289 439 
3 166 219 59 
3 328 462 326 
3 99 97 242 
3 370 326 462 
3 141 242 97 
3 326 370 2 
3 97 2 141 
3 94 2 370 
3 94 141 2 
3 460 455 305 
3 240 75 235 
3 289 305 455 
3 59 235 75 
3 448 339 449 
3 228 229 110 
3 254 449 339 
3 24 110 229 
3 261 446 255 
3 31 25 226 
3 359 255 446 
3 130 226 25 
3 449 254 450 
3 229 230 24 
3 253 450 254 
3 23 24 230 
3 450 253 451 
3 230 231 23 
3 252 451 253 
3 22 23 231 
3 451 252 452 
3 231 232 22 
3 256 452 252 
3 26 22 232 
3 256 341 452 
3 26 232 112 
3 453 452 341 
3 233 112 232 
3 413 464 414 
3 189 190 244 
3 463 414 464 
3 243 244 190 
3 441 413 286 
3 221 56 189 
3 414 286 413 
3 190 189 56 
3 441 286 442 
3 221 222 56 
3 258 442 286 
3 28 56 222 
3 442 258 443 
3 222 223 28 
3 257 443 258 
3 27 28 223 
3 444 443 259 
3 224 29 223 
3 257 259 443 
3 27 223 29 
3 259 260 444 
3 29 224 30 
3 445 444 260 
3 225 30 224 
3 260 467 445 
3 30 225 247 
3 342 445 467 
3 113 247 225 
3 250 309 458 
3 20 238 79 
3 459 458 309 
3 239 79 238 
3 290 305 392 
3 60 166 75 
3 289 392 305 
3 59 75 166 
3 460 305 328 
3 240 99 75 
3 290 328 305 
3 60 75 99 
3 376 433 401 
3 147 177 213 
3 435 401 433 
3 215 213 177 
3 250 290 309 
3 20 79 60 
3 392 309 290 
3 166 60 79 
3 411 416 376 
3 187 147 192 
3 433 376 416 
3 213 192 147 
3 341 463 453 
3 112 233 243 
3 464 453 463 
3 244 243 233 
3 453 464 357 
3 233 128 244 
3 465 357 464 
3 245 244 128 
3 412 343 465 
3 188 245 114 
3 357 465 343 
3 128 114 245 
3 437 343 399 
3 217 174 114 
3 412 399 343 
3 188 114 174 
3 363 440 360 
3 134 131 220 
3 344 360 440 
3 115 220 131 
3 456 420 399 
3 236 174 198 
3 437 399 420 
3 217 198 174 
3 456 363 420 
3 236 198 134 
3 360 420 363 
3 131 134 198 
3 361 401 288 
3 132 58 177 
3 435 288 401 
3 215 177 58 
3 353 265 383 
3 124 156 35 
3 372 383 265 
3 143 35 156 
3 255 249 339 
3 25 110 7 
3 390 339 249 
3 163 7 110 
3 261 255 448 
3 31 228 25 
3 339 448 255 
3 110 25 228 
3 14 317 13 
3 14 13 87 
3 312 13 317 
3 82 87 13 
3 317 402 312 
3 87 82 178 
3 311 312 402 
3 81 178 82 
3 402 318 311 
3 178 81 88 
3 310 311 318 
3 80 88 81 
3 318 324 310 
3 88 80 95 
3 415 310 324 
3 191 95 80 
